<?xml version="1.0" encoding="UTF-8" standalone="no"?>
<!-- Created with Inkscape (http://www.inkscape.org/) -->

<svg
   width="210mm"
   height="297mm"
   viewBox="0 0 210 297"
   version="1.1"
   id="svg1"
   inkscape:version="1.3.2 (091e20e, 2023-11-25, custom)"
   sodipodi:docname="buttons.svg"
   xml:space="preserve"
   xmlns:inkscape="http://www.inkscape.org/namespaces/inkscape"
   xmlns:sodipodi="http://sodipodi.sourceforge.net/DTD/sodipodi-0.dtd"
   xmlns="http://www.w3.org/2000/svg"
   xmlns:svg="http://www.w3.org/2000/svg"><sodipodi:namedview
     id="namedview1"
     pagecolor="#ffffff"
     bordercolor="#000000"
     borderopacity="0.25"
     inkscape:showpageshadow="2"
     inkscape:pageopacity="0.0"
     inkscape:pagecheckerboard="0"
     inkscape:deskcolor="#d1d1d1"
     inkscape:document-units="mm"
     inkscape:zoom="0.76702441"
     inkscape:cx="396.98867"
     inkscape:cy="561.25984"
     inkscape:window-width="1920"
     inkscape:window-height="1057"
     inkscape:window-x="-8"
     inkscape:window-y="-8"
     inkscape:window-maximized="1"
     inkscape:current-layer="layer1" /><defs
     id="defs1" /><g
     inkscape:label="Layer 1"
     inkscape:groupmode="layer"
     id="layer1"><g
       id="g2"><path
         style="fill:#410000;fill-opacity:1;stroke:#f78100;stroke-opacity:1"
         d="m 29.30166,103.88335 c -4.02987,-0.11925 -7.41211,-0.30189 -7.51608,-0.40587 -0.10398,-0.10397 1.20881,-0.98249 2.91731,-1.95227 8.00551,-4.544088 9.09543,-5.273658 11.52339,-7.713578 1.38549,-1.3923 3.30161,-3.45883 4.25803,-4.592266 0.95643,-1.13344 3.35598,-3.80705 5.33234,-5.94136 1.97636,-2.13431 4.13071,-4.51409 4.78744,-5.28842 0.65672,-0.77432 1.48431,-1.72682 1.83908,-2.11666 1.09453,-1.20275 4.11746,-5.85712 4.11746,-6.33961 0,-0.25103 0.23869,-0.65452 0.53043,-0.89663 0.43648,-0.36225 0.73327,-0.27482 1.67569,0.49365 0.6299,0.51362 1.7095,1.3278 2.39911,1.80929 l 1.25384,0.87543 42.84338,0.015 c 23.56386,0.008 43.96569,0.008 45.3374,-0.001 2.43349,-0.0158 2.54761,-0.0576 4.70283,-1.72566 2.89706,-2.24218 3.53089,-2.14168 4.90408,0.77756 1.20808,2.56823 6.05513,8.40598 13.39597,16.13402 3.59456,3.784156 3.95262,4.224656 4.18429,5.147706 0.11276,0.44929 0.41954,0.81689 0.68173,0.81689 0.26219,0 1.0678,0.63886 1.79025,1.41969 1.66711,1.80182 3.80428,3.21561 9.62464,6.366938 2.55976,1.38593 4.55214,2.62185 4.4275,2.74648 -0.12463,0.12464 -35.36517,0.22661 -78.31231,0.22661 -74.44883,0 -78.05959,-0.0289 -77.52508,-0.61952 0.30835,-0.34074 0.47849,-0.70166 0.3781,-0.80206 -0.23541,-0.23541 -1.34185,0.18508 -1.34185,0.50995 0,0.13619 -0.19843,0.47826 -0.44097,0.76015 -0.3708,0.43099 -1.60689,0.47804 -7.768,0.29572 z m 6.01112,-1.16036 c 0.72375,-0.46186 1.71278,-1.27018 2.19785,-1.79628 1.72023,-1.865741 1.94828,-1.838001 4.12583,0.50188 1.09311,1.17461 2.0717,2.05142 2.17463,1.94849 0.22311,-0.22311 -4.55815,-5.106018 -4.99974,-5.106018 -0.34475,0 -5.18127,4.736348 -5.18127,5.073958 0,0.3672 0.31499,0.25076 1.6827,-0.62203 z m 142.60341,0.53015 c 0,-0.44468 -1.03557,-1.24188 -1.28683,-0.99063 -0.36127,0.36127 0.17788,1.30021 0.74659,1.30021 0.29713,0 0.54024,-0.13931 0.54024,-0.30958 z m 3.46898,-0.001 c -0.19669,-0.51977 -4.48316,-4.980918 -4.78588,-4.980918 -0.43709,0 -5.08159,4.655218 -4.86279,4.874008 0.10638,0.10638 0.99741,-0.70862 1.98005,-1.81113 0.98265,-1.1025 1.90442,-2.004551 2.04839,-2.004551 0.14397,0 1.36159,0.951951 2.70581,2.115451 2.28714,1.97964 3.19203,2.54073 2.91442,1.80714 z m -150.67535,-1.4565 c 2.13273,-1.43755 7.46497,-6.089188 7.9839,-6.964828 0.17619,-0.29732 0.1517,-0.65759 -0.059,-0.86833 -0.24506,-0.24506 -0.9051,0.13737 -2.06503,1.1965 -3.9028,3.563617 -8.32479,6.742258 -10.52429,7.565108 -1.01431,0.37947 -0.98169,0.39697 0.78391,0.4207 1.57862,0.0212 2.13394,-0.17185 3.88056,-1.34915 z m 157.61331,0.53995 c -0.77611,-0.4746 -1.73419,-1.01072 -2.12908,-1.19138 -0.70051,-0.32048 -3.25048,-2.337791 -7.27096,-5.752158 -1.7046,-1.44762 -2.05409,-1.61628 -2.42444,-1.17003 -0.23801,0.28678 -0.62824,0.52142 -0.86719,0.52142 -0.50947,0 -6.18194,5.594318 -6.18194,6.096768 0,0.18785 1.03831,-0.70702 2.30736,-1.988621 1.26905,-1.281597 2.83118,-2.729707 3.4714,-3.218027 l 1.16404,-0.88786 1.73208,1.68127 c 2.25028,2.18428 6.43472,5.551818 7.75241,6.238958 0.56937,0.2969 1.67021,0.53819 2.44632,0.5362 l 1.41111,-0.004 z m -126.82361,0.38369 c 0,-0.0759 -1.11125,-1.2156 -2.46944,-2.5326 -1.3582,-1.317011 -2.46945,-2.687568 -2.46945,-3.045688 0,-0.35812 -0.35718,-0.7891 -0.79375,-0.95774 -0.43656,-0.16864 -1.16818,-0.70924 -1.62582,-1.20133 l -0.83208,-0.89471 1.50224,-2.72139 1.50224,-2.721386 -0.39675,-2.1334 c -0.21821,-1.17337 -0.30823,-2.22193 -0.20003,-2.33012 0.20008,-0.20008 1.313,0.96204 3.03225,3.16632 1.55646,1.99556 1.11874,0.69727 -0.77719,-2.30518 -0.97014,-1.53635 -1.76389,-3.02299 -1.76389,-3.30366 0,-0.28066 0.36844,-1.00153 0.81875,-1.60193 0.45031,-0.6004 0.95703,-1.32976 1.12605,-1.6208 0.76769,-1.32192 -1.55715,0.85868 -3.32806,3.12158 l -1.20055,1.53408 0.5881,1.64092 c 0.32345,0.90251 0.58582,2.19654 0.58304,2.87564 -0.005,1.32502 -1.53358,4.312636 -2.77974,5.434536 -0.93418,0.84103 -0.95005,1.26824 -0.0471,1.26824 0.38465,0 1.37684,0.69751 2.20486,1.55003 6.11496,6.295808 7.32633,7.416618 7.32633,6.778588 z m 48.58727,-0.11941 c -0.73193,-0.0764 -1.84318,-0.0751 -2.46944,0.003 -0.62627,0.0779 -0.0274,0.14041 1.33078,0.13885 1.3582,-0.002 1.87059,-0.0653 1.13866,-0.1417 z m 4.23385,0.0443 c -0.11722,-0.11722 -0.42149,-0.12976 -0.67615,-0.0279 -0.28143,0.11262 -0.19783,0.19621 0.21313,0.21314 0.37189,0.0153 0.58025,-0.0681 0.46302,-0.18529 z m 44.22651,-4.017271 c 2.73893,-2.836397 4.34182,-4.236257 4.85069,-4.236257 0.96489,0 0.96524,-0.41448 0.001,-1.26824 -0.41742,-0.36962 -1.21117,-1.37781 -1.76389,-2.24041 -1.1638,-1.816266 -1.34183,-4.174416 -0.47227,-6.255556 0.52938,-1.267 0.52409,-1.28624 -0.85613,-3.11433 -1.46408,-1.93917 -4.54089,-4.72121 -6.02655,-5.44919 -0.78512,-0.38472 -0.76576,-0.33163 0.17639,0.48362 0.58208,0.50369 1.46481,1.16925 1.96161,1.47902 0.49681,0.30978 1.33905,1.25202 1.87164,2.09387 0.94884,1.49978 0.95634,1.55415 0.37223,2.69745 -0.32788,0.64176 -0.86961,1.5637 -1.20385,2.04877 -1.07797,1.56441 -2.46615,4.23339 -2.2009,4.23156 0.14168,-9.8e-4 1.02011,-1.11223 1.95207,-2.46945 0.93196,-1.35721 1.94113,-2.46767 2.2426,-2.46767 0.39226,0 0.46945,0.17557 0.27143,0.61737 -0.15218,0.33954 -0.34453,1.39051 -0.42743,2.33547 -0.15455,1.76175 -0.0269,2.14134 1.76802,5.258856 l 0.97033,1.68531 -1.26285,1.2264 c -0.69456,0.67451 -1.40737,1.13706 -1.58401,1.02789 -0.17665,-0.10917 -0.32117,0.16509 -0.32117,0.60947 0,0.55233 -0.86505,1.61817 -2.73403,3.368658 -1.50371,1.40838 -2.4959,2.56361 -2.20486,2.56717 0.29104,0.004 2.36997,-1.89983 4.61985,-4.229781 z m -104.58608,0.9233 c -1.4312,-2.078037 -3.28866,-3.975177 -3.59353,-3.670307 -0.11178,0.11178 0.8703,1.59401 2.18239,3.293837 2.50621,3.246811 3.58652,3.535021 1.41114,0.37647 z m 109.09125,-0.71295 c 1.19013,-1.638057 2.16387,-3.101707 2.16387,-3.252557 0,-0.4436 -2.42399,2.01906 -3.73241,3.791957 -1.09874,1.488781 -1.6474,3.089111 -0.90091,2.627751 0.16806,-0.10387 1.27931,-1.52909 2.46945,-3.167151 z M 43.1443,97.731062 c -1.63474,-1.64328 -3.21389,-2.98391 -3.50921,-2.97918 -0.29533,0.005 0.33617,0.7588 1.40332,1.6757 1.06715,0.9169 2.56902,2.334797 3.33749,3.150897 0.76846,0.816091 1.47448,1.406531 1.56893,1.312081 0.0944,-0.0944 -1.16579,-1.516231 -2.80053,-3.159498 z m 127.19864,-2.64599 c 1.62712,-1.55827 3.4475,-3.03886 4.04529,-3.29022 l 1.08689,-0.457 -4.04327,-3.916876 c -6.5625,-6.35735 -11.6489,-12.76903 -12.79269,-16.12588 -0.30584,-0.89759 -0.73707,-1.57234 -0.95827,-1.49944 -0.22121,0.0729 -0.44497,0.99312 -0.49724,2.04494 -0.0941,1.89372 -0.0734,1.9367 2.11667,4.39861 1.21643,1.36741 3.14714,3.63524 4.29046,5.03962 1.83336,2.252 2.01171,2.60399 1.5108,2.98185 -0.75991,0.57325 -1.69406,2.89987 -1.43518,3.57452 0.14694,0.38289 0.43529,0.10679 0.99257,-0.95042 0.59782,-1.13412 1.02342,-1.51797 1.78147,-1.60673 0.83877,-0.0982 1.43334,0.31815 3.76643,2.63756 1.52374,1.514796 2.77043,2.901346 2.77043,3.081226 0,0.17988 -0.59531,0.89798 -1.32292,1.59578 -0.7276,0.6978 -1.79916,1.83173 -2.38125,2.51986 -0.58208,0.68812 -1.36075,1.60093 -1.73037,2.02847 -1.47755,1.709077 0.007,0.61918 2.80018,-2.05587 z m -122.60175,2.15109 c 0,-0.18113 -1.26881,-1.66974 -2.81957,-3.30801 l -2.81956,-2.97868 2.90776,-2.860266 c 1.73705,-1.70868 3.20258,-2.86242 3.64001,-2.8656 0.90535,-0.007 2.20101,1.32665 2.60699,2.6826 l 0.30428,1.01624 0.0303,-1.27368 c 0.0194,-0.81589 -0.28667,-1.74081 -0.85162,-2.57331 -0.48507,-0.71479 -0.88195,-1.3637 -0.88195,-1.44202 0,-0.2095 3.32935,-4.2075 5.95118,-7.1464 l 2.28171,-2.55764 h 2.03964 c 1.46389,0 2.12489,0.15234 2.34167,0.53969 0.27108,0.48441 0.43434,0.48441 1.59369,0 1.13502,-0.47424 6.42874,-0.53969 43.64766,-0.53969 35.75606,0 42.54248,0.0779 43.55281,0.50006 1.00561,0.42017 1.22631,0.42322 1.38139,0.0191 0.11569,-0.30148 0.88264,-0.52102 2.05505,-0.58825 1.8441,-0.10576 1.87208,-0.12414 1.98477,-1.30404 l 0.11429,-1.19678 -1.28099,0.7558 -1.28098,0.75581 -46.6347,-0.002 c -45.67855,-0.002 -46.65613,-0.0165 -47.68069,-0.69182 -0.78178,-0.51532 -1.11459,-0.58157 -1.31752,-0.26226 -0.16919,0.26623 -0.27558,0.0949 -0.28231,-0.45471 -0.024,-1.95634 -1.14792,-2.28611 -1.51617,-0.44485 -0.51571,2.57854 -6.35184,10.0086 -12.95376,16.49159 l -3.94701,3.875906 1.04941,0.4282 c 0.57718,0.23551 2.30005,1.62021 3.82861,3.07709 3.02031,2.8787 2.95559,2.82727 2.95559,2.34828 z m 8.68322,-4.69774 c 0.3231,-0.63059 0.76241,-1.25898 0.97625,-1.39642 0.28154,-0.18096 0.27793,-0.36077 -0.0131,-0.6518 -0.30069,-0.30069 -0.63311,-0.0617 -1.31997,0.94914 -0.50493,0.74308 -0.91806,1.55233 -0.91806,1.79833 0,0.82993 0.68344,0.45507 1.27488,-0.69925 z m 103.85289,0.91294 c 0,-0.12848 -0.41283,-0.93803 -0.91739,-1.799 -0.57473,-0.9807 -1.04167,-1.44113 -1.25011,-1.23269 -0.20845,0.20844 0.0259,0.8804 0.62727,1.799 0.86393,1.31953 1.54023,1.8608 1.54023,1.23269 z M 48.11143,90.800202 c -0.39356,-0.42244 -0.80418,-0.67947 -0.91248,-0.57116 -0.2413,0.2413 0.8136,1.33924 1.28673,1.33924 0.18773,0 0.0193,-0.34564 -0.37425,-0.76808 z m 119.74219,0.19691 c 0.31414,-0.31414 0.47982,-0.6625 0.36818,-0.77415 -0.11164,-0.11164 -0.55136,0.14538 -0.97714,0.57117 -0.42578,0.42578 -0.59146,0.77415 -0.36818,0.77415 0.22329,0 0.663,-0.25703 0.97714,-0.57117 z m -2.79931,-0.46369 c -0.1279,-0.20694 -0.40136,-0.37625 -0.60769,-0.37625 -0.23393,0 -0.20716,0.20241 0.0711,0.53769 0.48385,0.583 0.91628,0.4529 0.5366,-0.16144 z m -113.96173,-0.0235 c 0.11991,-0.19402 0.0593,-0.35277 -0.13475,-0.35277 -0.19403,0 -0.45089,0.15875 -0.57081,0.35277 -0.11991,0.19403 -0.0593,0.35278 0.13475,0.35278 0.19403,0 0.45089,-0.15875 0.57081,-0.35278 z m 10.023,-14.375686 c 0.0818,-0.0485 -0.0118,-0.0882 -0.20795,-0.0882 -0.47153,0 -2.23033,1.52142 -2.23033,1.92931 0,0.17565 0.51514,-0.14691 1.14476,-0.71679 0.62963,-0.56987 1.21171,-1.07582 1.29352,-1.12433 z m 83.28672,-0.10298 c -2.48193,-0.34309 -71.02953,-0.34104 -74.08333,0.002 -1.26118,0.14176 15.32819,0.2596 36.86527,0.26187 21.53709,0.002 38.28521,-0.11658 37.21806,-0.2641 z"
         id="path1-9" /><text
         xml:space="preserve"
         style="font-size:28.6463px;fill:#f78100;fill-opacity:1;stroke:#f78100;stroke-width:2.3872;stroke-opacity:1"
         x="61.591404"
         y="109.9585"
         id="text1-4"
         transform="scale(1.107077,0.90327953)"><tspan
           sodipodi:role="line"
           id="tspan1-4"
           style="fill:#f78100;fill-opacity:1;stroke:#f78100;stroke-width:2.3872;stroke-opacity:1"
           x="61.591404"
           y="109.9585">PLAY</tspan></text></g></g></svg>
